# xmcd
#
# Track frame offsets:
#	150
#	15070
#	34233
#	46103
#	60940
#	72460
#	84400
#	98178
#	112594
#	126614
#	139840
#	154624
#	168536
#	184354
#	197830
#	211274
#	224730
#	239135
#	253476
#	266764
#
# Disc length: 3721 seconds
#
# Revision: 0
# Processed by: cddbd v1.5.1PL2 Copyright (c) Steve Scherf et al.
# Submitted via: dBpowerAMP V4.0
#
DISCID=2b0e8714
DTITLE=Louis Armstrong - Plays and Sings
DYEAR=2002
DGENRE=Blues
TTITLE0=Baby  won't you please come home ? (Warfield - Williams)
TTITLE1=West End Blues (Williams - Oliver)
TTITLE2=Alexander's Ragtime Band (Irving Berlin)
TTITLE3=Back O' Town Blues (L.Armstrong - L.Russel) With Velma Middleton
TTITLE4=Bye and Bye (L.Armstrong)
TTITLE5=Blues for Yesterday (Carr)
TTITLE6=Joseph and his Brudders (L.Armstrong - Bell)
TTITLE7=When it's sleepy time down South (René - René - Muse)
TTITLE8=Blues in the South (Carr - Johnstone)
TTITLE9=No variety Blues (L.Armstrong - Fairbanks) With Velma Middleton
TTITLE10=Rockin'chair (H.Carmichael) With Pee Wee hunt
TTITLE11=Do you know what it means to miss New Orleans (L.Alter - E.de Lange)
TTITLE12=Sugar (Alexander - Mitchell - Pinkard)
TTITLE13=I wonder (R.Leveen - C.Gant)
TTITLE14=On the sunny side of the Street (D.Fields - J.Mc Hugh)
TTITLE15=The Blues are brewin' (L.Alter - E.de Lange)
TTITLE16=Red cap (B.Hecht - L.Armstrong)
TTITLE17=Where the blues were born in New-Orleans (Carleton - Dixon)
TTITLE18=Ain't misbehavin' (Razaf - Brooks - Waller)
TTITLE19=Sun showers (F.Freed - Nacio - H Brown)
EXTD=Compilation of Louis Armstrong - Plays and Sings
EXTT0=
EXTT1=
EXTT2=
EXTT3=
EXTT4=
EXTT5=
EXTT6=
EXTT7=
EXTT8=
EXTT9=
EXTT10=
EXTT11=
EXTT12=
EXTT13=
EXTT14=
EXTT15=
EXTT16=
EXTT17=
EXTT18=
EXTT19=
PLAYORDER=
